<!-- Generated by IcoMoon.io -->
<svg version="1.1" xmlns="http://www.w3.org/2000/svg" width="24" height="24" viewBox="0 0 24 24">
<title>exposure_plus_2</title>
<path d="M8.016 6.984v4.031h3.984v1.969h-3.984v4.031h-2.016v-4.031h-3.984v-1.969h3.984v-4.031h2.016zM16.031 16.313h5.953v1.688h-8.625v-1.5l4.172-4.547c0.634-0.634 1.042-1.19 1.453-1.875 0.226-0.377 0.375-0.782 0.375-1.313 0-0.656-0.234-1.077-0.516-1.453-0.299-0.399-0.705-0.609-1.406-0.609-0.722 0-1.281 0.297-1.641 0.656-0.328 0.328-0.516 1.018-0.516 1.641h-2.156c0-1.203 0.485-2.172 1.125-2.813 0.375-0.375 0.797-0.703 1.359-0.891s1.172-0.281 1.875-0.281c0.656 0 1.172 0.094 1.688 0.234 0.469 0.188 0.938 0.375 1.266 0.703 0.628 0.538 1.078 1.453 1.078 2.578 0 0.948-0.345 1.696-0.75 2.344-0.234 0.375-0.469 0.797-0.797 1.172s-0.703 0.797-1.078 1.172z"></path>
</svg>
